<svg xmlns="http://www.w3.org/2000/svg" width="64" height="64" version="1.1"><rect width="60" height="60" x="3" y="3" fill="#a9a9a9" rx="6" ry="6"/><rect width="60" height="60" x="1" y="1" fill="#708090" stroke="#2f4f4f" stroke-width="1" rx="6" ry="6"/><g transform="rotate(45 30 30)"><path fill="#fff" d="M 27 50 L 27 24 C 27 16, 11 24, 13 24 C 11 22, 19 16, 23 16 L 35 16 C 35 19, 41 19, 41 16 L 45 16 L 45 24 L 41 24 C 41 21, 35 21, 35 24 L 35 50 C 35 53, 27 53, 27 50"/><rect width="4" height="24" x="29" y="26" fill="#708090"/></g></svg>